<svg width="116" height="116" viewBox="0 0 116 116" fill="none" xmlns="http://www.w3.org/2000/svg">
<path d="M52.4969 53.7221C49.5844 59.2815 44.1748 71.8763 47.5129 77.2549C47.9172 77.8795 48.6132 78.2535 49.3572 78.2456H67.1447C67.888 78.2543 68.5839 77.8818 68.989 77.2586C72.3256 71.8785 66.9065 59.2586 64.0051 53.7258C66.199 40.1697 65.9969 41.4622 65.9969 41.342C65.9784 39.5597 63.2674 37.6719 58.251 37.6719C53.2346 37.6719 50.5235 39.5597 50.5051 41.342C50.5051 41.4755 50.4217 40.9045 52.4969 53.7221ZM67.7379 76.4811C67.6029 76.6713 67.3807 76.7802 67.1477 76.7702H49.3572C49.1242 76.7802 48.902 76.6713 48.767 76.4811C45.9844 71.9965 50.6526 60.467 53.6809 54.6391H62.8247C65.8493 60.467 70.5175 71.9965 67.7364 76.4811H67.7379ZM58.251 39.1473C62.5599 39.1473 64.4388 40.6618 64.5215 41.3176C63.7247 46.2012 64.1024 43.9114 62.6034 53.1637H57.047L55.6616 43.4688C55.6242 43.2078 55.4504 42.9867 55.2057 42.8887C54.9611 42.7906 54.6827 42.8305 54.4754 42.9934C54.2682 43.1563 54.1635 43.4173 54.201 43.6783L55.5561 53.1637H53.8985L51.9805 41.3176C52.0631 40.6618 53.942 39.1473 58.251 39.1473V39.1473Z" fill="black" stroke="black"/>
<path d="M57.3062 67.1795C54.995 67.1795 53.631 66.0641 52.3252 64.5238C52.1645 64.2876 51.8818 64.1655 51.5996 64.2103C51.3175 64.2552 51.0866 64.4589 51.007 64.7333C49.9668 67.9054 48.8846 72.2092 49.6105 74.758C49.7005 75.0753 49.9903 75.2943 50.3202 75.2943H66.1808C66.5098 75.2942 66.799 75.0764 66.8898 74.7602C67.3486 73.1601 67.1848 70.7478 66.4206 67.9659C66.2574 67.091 65.7248 66.329 64.9592 65.8752C62.898 64.8056 59.9944 67.1795 57.3062 67.1795V67.1795ZM64.2798 67.1847C64.6661 67.4631 64.9247 67.8848 64.9976 68.3554C65.5528 70.1198 65.7534 71.9766 65.5877 73.8189H50.9177C50.6839 72.2136 51.0771 69.5933 52.0294 66.402C53.4047 67.8452 55.3127 68.6598 57.3062 68.6549C60.1058 68.6549 63.0751 66.562 64.2798 67.1847Z" fill="black" stroke="black"/>
<path d="M90.7501 54.0855V32.9604C90.7423 32.1969 90.3904 31.4778 89.7924 31.003C89.1945 30.5283 88.4142 30.3487 87.6689 30.5141C74.9188 33.3279 64.8901 25.8779 60.0438 21.1829C59.0437 20.2177 57.4589 20.2177 56.4588 21.1829C51.6138 25.8729 41.5838 33.3242 28.8337 30.5091C28.0871 30.3421 27.305 30.5218 26.7061 30.9978C26.1072 31.4739 25.7557 32.1953 25.75 32.9604V54.0855C25.75 74.158 39.1025 86.068 57.0813 95.1806C57.8167 95.5518 58.6847 95.5518 59.4201 95.1806C77.3251 86.103 90.7501 74.2218 90.7501 54.0855ZM88.2501 54.0855C88.2501 72.9718 75.2626 84.593 58.2113 92.9506C41.2425 84.3555 28.2712 73.2693 28.2712 54.0855V32.9604C42.1563 36.0229 52.99 28.0241 58.3051 22.9829C63.5101 28.0229 74.3151 36.0217 88.2501 32.9754V54.0855Z" fill="black"/>
<rect x="1.25006" y="0.958984" width="114" height="114" rx="57" stroke="#736F6C"/>
</svg>
