<svg width="116" height="116" viewBox="0 0 116 116" fill="none" xmlns="http://www.w3.org/2000/svg">
<path fill-rule="evenodd" clip-rule="evenodd" d="M43.343 21.4252C40.9218 24.2436 39.2541 30.5 39.7979 34.7243C39.9127 35.6163 40.4292 37.4631 40.9456 38.8283C41.7123 40.8553 41.8934 41.6365 41.9332 43.0881C41.9959 45.3774 42.2216 45.6703 43.8459 45.5692C45.1653 45.4869 45.1333 45.4574 45.4105 47.0222C45.5344 47.7224 45.4542 48.0037 44.9371 48.6817C44.0229 49.8802 44.0076 50.9095 44.8326 55.6355C45.4498 59.1704 45.5164 59.8798 45.2541 60.1327C44.0976 61.2472 41.0302 63.6214 40.9156 63.4899C40.839 63.4021 39.9762 61.1203 38.9984 58.4197C38.0204 55.719 37.0357 53.2493 36.8102 52.9314C36.5845 52.6136 35.3041 48.9577 33.965 44.8073C32.3062 39.6662 31.3817 37.1334 31.065 36.8608C30.4613 36.3415 29.6769 36.3513 29.1946 36.8841C28.2534 37.9241 27.8102 44.5619 28.4571 47.9315C28.8292 49.8697 29.6865 52.2555 30.5246 53.6856C30.8454 54.2328 31.1077 54.866 31.1077 55.0929C31.1077 55.3197 32.1368 58.3314 33.3945 61.7855C34.6522 65.2399 35.6812 68.0915 35.6812 68.1226C35.6812 68.1539 33.263 70.2109 30.3074 72.6936C27.3517 75.1763 24.9335 77.3565 24.9335 77.5381C24.9335 77.9529 38.332 93.9472 38.7599 94.043C38.9328 94.0817 40.0647 93.2168 41.2756 92.1212C42.5518 90.9664 43.5598 90.2159 43.6735 90.3357C43.7814 90.4494 44.1576 91.3657 44.5095 92.3719C45.2296 94.4309 46.0659 95.459 47.0201 95.459C48.0114 95.459 49.4594 94.47 50.0771 93.3712C50.8781 91.9458 50.8065 90.7435 49.7539 87.9374L48.8749 85.5937L49.3606 85.108C49.6279 84.8409 49.8822 84.668 49.9259 84.724C49.9698 84.7798 50.2868 86.472 50.6307 88.4844C51.3133 92.4805 51.8548 93.8063 53.0581 94.4286C53.9325 94.8809 55.34 94.8669 56.0073 94.3995C56.6542 93.9465 57.3935 92.3911 57.4004 91.4686C57.4043 90.944 57.4665 90.855 57.6798 91.0684C58.0574 91.4459 61.3913 91.4366 61.6924 91.057C61.8173 90.8999 62.0437 88.1471 62.1957 84.9399C62.348 81.7327 62.5072 78.8514 62.55 78.537C62.5925 78.2225 62.6359 77.3296 62.6462 76.5525L62.665 75.1398L63.9799 74.623C65.0032 74.2207 65.7763 74.1032 67.4672 74.092C69.4468 74.0792 69.775 74.1418 71.1644 74.8002C72.2536 75.3163 73.1861 76.0227 74.4292 77.274C76.3791 79.2365 77.8168 80.0346 79.002 79.8123C80.1354 79.5996 81.1877 78.2623 81.1877 77.035C81.1877 75.5274 80.609 74.563 77.3933 70.7131C74.1962 66.8853 73.8333 66.3008 74.0864 65.3881C74.3188 64.5496 74.6373 64.2523 80.959 58.9751C88.4207 52.7464 90.1713 51.1206 90.788 49.8468C91.335 48.7165 91.3823 47.4999 90.9058 46.8194C90.522 46.2715 89.1242 45.7254 88.6103 45.9225C88.131 46.1066 88.1754 46.0012 89.187 44.5571C90.1367 43.2011 90.4855 42.0979 90.2243 41.2749C89.7336 39.7291 87.8529 39.4425 85.622 40.5738C84.8811 40.9495 84.2698 41.2582 84.2636 41.2598C84.2575 41.2614 84.2943 40.9029 84.3457 40.4631C84.4893 39.2319 84.2255 38.564 83.4333 38.1544C81.9842 37.405 79.8047 38.1217 77.3672 40.1492C76.6387 40.7554 75.9911 41.2537 75.9282 41.2566C75.8653 41.2594 75.7923 40.9546 75.766 40.5788C75.699 39.6198 75.3295 39.0227 74.4843 38.5073C72.7608 37.4563 71.6435 37.9941 66.399 42.3993C62.4862 45.6859 62.0803 45.9694 61.9513 45.5052C61.3183 43.2287 61.1473 29.7584 61.7222 27.4574C62.078 26.0328 61.9561 25.9415 59.6922 25.9415C58.2662 25.9415 57.6503 26.0268 57.5703 26.2354C57.5081 26.3973 57.6177 27.2976 57.8136 28.2363C58.4139 31.1126 58.3073 37.8027 57.5573 44.3499C57.2115 47.3685 56.8559 50.0167 56.7667 50.2349C56.5991 50.6458 51.4971 54.9834 51.1813 54.9834C51.083 54.9834 51.0025 54.8775 51.0025 54.748C51.0025 54.2617 45.0503 20.8562 44.9287 20.6593C44.6661 20.2347 44.1525 20.4828 43.343 21.4252ZM45.944 33.8448C46.866 39.0721 47.5596 43.4101 47.4848 43.4846C47.4102 43.5592 46.6792 43.7462 45.8601 43.9001L44.3709 44.1798L44.3682 42.8928C44.365 41.3513 44.0023 39.9424 42.9769 37.4897C42.2435 35.735 42.212 35.5386 42.2097 32.6875C42.2072 29.6207 42.4208 28.4135 43.4539 25.6557C43.7247 24.9326 44.0185 24.3408 44.1068 24.3408C44.1951 24.3408 45.0217 28.6177 45.944 33.8448ZM60.2504 28.0568C60.1603 28.4654 60.0219 29.829 59.9431 31.0867L59.7994 33.3735L59.5138 30.6962C59.3565 29.2237 59.1669 27.8603 59.0926 27.6662C58.9881 27.3938 59.1233 27.3136 59.6858 27.3136C60.3892 27.3136 60.4089 27.3394 60.2504 28.0568ZM60.1589 41.1485C60.2982 43.035 60.6616 47.0842 60.9668 50.1464C61.2719 53.2086 61.5216 55.7556 61.5216 55.8061C61.5216 55.8567 60.6517 55.8981 59.5886 55.8981H57.6556L57.7654 54.8119C57.8257 54.2143 58.0304 52.3364 58.2202 50.6385C59.1935 41.9287 59.4418 39.585 59.6144 37.4897C59.7626 35.6875 59.8136 35.4693 59.8543 36.4606C59.8827 37.1524 60.0197 39.2619 60.1589 41.1485ZM82.9714 40.0209C83.0919 41.2539 81.8225 42.6193 76.1569 47.3508C73.2012 49.8192 70.7013 51.979 70.6019 52.1503C70.3791 52.5331 70.751 53.2777 71.2627 53.4739C71.6894 53.6376 71.2524 53.9776 79.1296 47.355C84.8093 42.58 86.7336 41.2628 88.0299 41.2628C88.9874 41.2628 89.1168 41.7149 88.5152 42.9575C87.8948 44.2393 86.3023 45.7332 79.5371 51.3794C76.5623 53.8624 74.0583 56.0074 73.9723 56.1464C73.732 56.5354 74.351 57.4988 74.8415 57.4988C75.2952 57.4988 76.0132 56.9356 82.3819 51.5836C86.1655 48.4039 87.0439 47.7906 88.3496 47.416C89.1891 47.1755 89.8774 47.5141 89.8774 48.1681C89.8774 49.4407 88.7121 50.6138 81.0862 57.0172C76.8733 60.5546 73.3092 63.668 73.1658 63.9358C72.0226 66.0718 72.3508 66.9019 76.0915 71.3337C77.7898 73.346 79.3309 75.3435 79.5161 75.7727C79.9307 76.7339 79.7381 77.9827 79.1244 78.311C78.343 78.7293 77.5104 78.285 75.4923 76.3726C74.4068 75.344 73.0576 74.2353 72.4939 73.9093C70.2044 72.585 67.3435 72.2619 64.4939 73.006L63.0073 73.3943L63 64.5891C62.9945 57.8448 62.9012 54.9541 62.601 52.2392C62.3855 50.2898 62.2088 48.4759 62.2083 48.2084C62.2074 47.5034 71.5497 39.7321 72.6453 39.5265C74.2703 39.2216 74.9216 40.9552 73.6986 42.33C73.3528 42.719 71.8349 44.0625 70.3256 45.3156C66.8324 48.2162 66.8525 48.1919 67.3311 48.9223C67.5376 49.2374 67.8623 49.4951 68.0528 49.4951C68.2433 49.4951 70.9289 47.3751 74.0208 44.7837C79.7171 40.0097 80.9819 39.1576 82.2168 39.2614C82.7999 39.3104 82.9131 39.4245 82.9714 40.0209ZM35.2239 53.1837C35.2239 53.2662 34.8379 53.4915 34.3663 53.6842C33.3286 54.1084 33.2614 54.0483 32.1146 51.6676C30.8152 48.9699 30.3764 46.8585 30.3721 43.285C30.37 41.5674 30.4505 40.0293 30.5509 39.8667C30.6639 39.6838 31.5882 42.1341 32.9787 46.3026C34.2136 50.0046 35.2239 53.1014 35.2239 53.1837ZM48.1175 46.2365C48.198 46.7712 48.1855 47.2098 48.0896 47.2116C47.9938 47.2132 47.694 47.274 47.4235 47.3465C47.0098 47.4576 46.9074 47.3575 46.7777 46.7147C46.6929 46.2944 46.5751 45.7778 46.5159 45.5667C46.437 45.2843 46.5774 45.1613 47.0476 45.1018C47.871 44.9975 47.9424 45.0732 48.1175 46.2365ZM48.5998 49.095C49.2868 52.0062 56.03 91.3844 55.9298 91.8994C55.5534 93.8345 53.8104 93.936 52.8493 92.0787C52.5628 91.5251 45.5143 51.9193 45.5143 50.8633C45.5143 50.0339 46.29 49.092 47.1866 48.8324C48.3041 48.5093 48.4688 48.5397 48.5998 49.095ZM56.2831 55.8981C56.0677 58.009 56.1308 71.2063 56.3684 73.7348C56.7222 77.4958 56.7407 77.2918 55.9959 77.8425C55.6195 78.1208 55.2774 78.3138 55.2358 78.2712C55.1738 78.2077 53.8104 70.5697 51.7606 58.8006C51.5676 57.6929 51.4468 56.7602 51.4919 56.7279C51.5372 56.6957 52.6547 55.7563 53.9753 54.6401C56.7487 52.2964 56.6561 52.2461 56.2831 55.8981ZM42.7727 72.8201C46.6366 83.4327 49.2273 90.8706 49.2305 91.3604C49.2333 91.8102 49.0519 92.4588 48.8274 92.8013C48.3599 93.5145 47.2904 94.14 46.836 93.9655C46.6103 93.8788 38.255 71.3106 32.7798 55.9991C32.654 55.6474 35.9829 54.51 36.172 54.84C36.2534 54.9818 39.2237 63.0728 42.7727 72.8201ZM60.3211 56.2932C59.8495 56.3426 59.0777 56.3426 58.606 56.2932C58.1345 56.244 58.5202 56.2036 59.4635 56.2036C60.4068 56.2036 60.7928 56.244 60.3211 56.2932ZM61.5216 57.2701C61.5216 57.6916 61.3691 57.7275 59.5779 57.7275C57.7866 57.7275 57.6341 57.6916 57.6341 57.2701C57.6341 56.8487 57.7866 56.8128 59.5779 56.8128C61.3691 56.8128 61.5216 56.8487 61.5216 57.2701ZM60.6709 58.1233C60.1402 58.1711 59.214 58.1718 58.6128 58.1244C58.0117 58.0773 58.4459 58.038 59.5779 58.0373C60.7098 58.0366 61.2017 58.0753 60.6709 58.1233ZM61.7098 59.0163C61.6003 59.5704 57.5566 59.5667 57.4459 59.0122C57.3819 58.6918 57.6675 58.6422 59.5779 58.6422C61.4976 58.6422 61.7743 58.6907 61.7098 59.0163ZM60.7862 59.9534C60.1928 60.0003 59.1637 60.0007 58.4994 59.9543C57.8349 59.9081 58.3201 59.8697 59.5779 59.869C60.8356 59.8686 61.3794 59.9063 60.7862 59.9534ZM61.7098 60.7945C61.7734 61.1062 61.4731 61.1576 59.5946 61.1576C57.9227 61.1576 57.4054 61.0856 57.4054 60.8528C57.4054 60.3712 57.4827 60.3552 59.6158 60.3943C61.2582 60.4245 61.6497 60.4992 61.7098 60.7945ZM47.665 71.7339C48.6405 77.2991 49.4891 82.1109 49.5507 82.4268C49.6369 82.8681 49.5086 83.1146 48.9952 83.4942L48.3277 83.9877L44.987 74.8022C43.1498 69.7503 41.6163 65.504 41.5795 65.3662C41.5202 65.1448 45.4263 61.6488 45.7599 61.6246C45.8322 61.6193 46.6895 66.1686 47.665 71.7339ZM60.7862 61.7828C60.1928 61.8297 59.1637 61.8301 58.4994 61.7837C57.8349 61.7375 58.3201 61.6991 59.5779 61.6984C60.8356 61.698 61.3794 61.7357 60.7862 61.7828ZM61.7503 62.5297C61.7503 62.955 61.5978 62.987 59.5779 62.987C57.558 62.987 57.4054 62.955 57.4054 62.5297C57.4054 62.1043 57.558 62.0723 59.5779 62.0723C61.5978 62.0723 61.7503 62.1043 61.7503 62.5297ZM60.7862 63.6122C60.1928 63.6591 59.1637 63.6595 58.4994 63.6131C57.8349 63.5669 58.3201 63.5285 59.5779 63.5278C60.8356 63.5274 61.3794 63.5651 60.7862 63.6122ZM61.7503 64.3591C61.7503 64.7844 61.5978 64.8164 59.5779 64.8164C57.558 64.8164 57.4054 64.7844 57.4054 64.3591C57.4054 63.9337 57.558 63.9017 59.5779 63.9017C61.5978 63.9017 61.7503 63.9337 61.7503 64.3591ZM61.7503 65.2738C61.7503 65.4101 60.8738 65.5024 59.5779 65.5024C58.282 65.5024 57.4054 65.4101 57.4054 65.2738C57.4054 65.1375 58.282 65.0451 59.5779 65.0451C60.8738 65.0451 61.7503 65.1375 61.7503 65.2738ZM61.7503 66.1885C61.7503 66.6138 61.5978 66.6458 59.5779 66.6458C57.558 66.6458 57.4054 66.6138 57.4054 66.1885C57.4054 65.7631 57.558 65.7311 59.5779 65.7311C61.5978 65.7311 61.7503 65.7631 61.7503 66.1885ZM60.7862 67.0424C60.1928 67.0892 59.1637 67.0897 58.4994 67.0433C57.8349 66.9971 58.3201 66.9587 59.5779 66.958C60.8356 66.9575 61.3794 66.9952 60.7862 67.0424ZM61.7068 67.9607C61.6403 68.3065 61.3501 68.3609 59.5779 68.3609C57.8056 68.3609 57.5154 68.3065 57.4489 67.9607C57.3798 67.6019 57.6 67.5605 59.5779 67.5605C61.5557 67.5605 61.7759 67.6019 61.7068 67.9607ZM60.6709 68.8711C60.1402 68.9189 59.214 68.9195 58.6128 68.8722C58.0117 68.8251 58.4459 68.7858 59.5779 68.7851C60.7098 68.7844 61.2017 68.823 60.6709 68.8711ZM61.5216 69.7901C61.5216 70.1398 61.2767 70.1903 59.5779 70.1903C57.879 70.1903 57.6341 70.1398 57.6341 69.7901C57.6341 69.4405 57.879 69.3899 59.5779 69.3899C61.2767 69.3899 61.5216 69.4405 61.5216 69.7901ZM39.6515 78.9779C41.5209 84.1217 43.013 88.4393 42.9673 88.5724C42.8735 88.8471 39.0803 92.2644 38.8912 92.2447C38.6307 92.2177 26.8772 77.9831 26.8772 77.6948C26.8772 77.4377 35.8029 69.6723 36.1386 69.6374C36.2015 69.631 37.7823 73.834 39.6515 78.9779ZM60.6709 70.7005C60.1402 70.7483 59.214 70.749 58.6128 70.7016C58.0117 70.6545 58.4459 70.6152 59.5779 70.6145C60.7098 70.6138 61.2017 70.6525 60.6709 70.7005ZM61.4795 71.5123C61.5463 71.8592 61.3249 71.9054 59.5946 71.9054C58.1134 71.9054 57.6341 71.8308 57.6341 71.6005C57.6341 71.1247 57.7158 71.1045 59.6149 71.1121C61.121 71.1183 61.4157 71.1816 61.4795 71.5123ZM60.5557 72.529C60.0873 72.5781 59.2641 72.5788 58.7263 72.5303C58.1884 72.4821 58.5717 72.4418 59.5779 72.4412C60.584 72.4402 61.024 72.4798 60.5557 72.529ZM61.3439 74.6495C61.3089 75.5928 61.2328 77.0334 61.1745 77.8509C61.1164 78.6685 60.9595 81.6012 60.8262 84.3682C60.6927 87.1352 60.5406 89.5278 60.488 89.6849C60.4356 89.8422 60.0293 89.9708 59.5849 89.9708H58.7775L58.7658 88.8846C58.7594 88.287 58.7098 87.3867 58.6556 86.8836C58.5426 85.8354 58.1754 80.0288 57.9499 75.7254L57.7967 72.7997L59.6019 72.8669L61.4073 72.9344L61.3439 74.6495ZM56.8152 80.6522C57.0636 83.3382 57.4427 90.0099 57.3519 90.1006C57.3021 90.1503 56.8671 87.928 56.3855 85.1619C55.5397 80.304 55.5239 80.1171 55.9213 79.6778C56.1477 79.4277 56.4116 79.223 56.5079 79.223C56.6042 79.223 56.7425 79.8663 56.8152 80.6522Z" fill="black" stroke="black"/>
<rect x="1.08334" y="0.958984" width="114" height="114" rx="57" stroke="#736F6C"/>
</svg>
