<svg width="116" height="116" viewBox="0 0 116 116" fill="none" xmlns="http://www.w3.org/2000/svg">
<path fill-rule="evenodd" clip-rule="evenodd" d="M58.4343 28.6017C58.1393 49.9873 58.1342 57.5208 58.4148 57.2881C58.5619 57.1659 59.5139 55.8294 60.5301 54.3179C61.5465 52.8066 65.0441 47.6009 68.3026 42.7497C76.4974 30.5497 77.8931 28.5195 78.1382 28.4429C78.4478 28.3459 81.3856 31.1881 83.124 33.2665C88.4616 39.6481 91.14 47.0509 91.1518 55.4546C91.1764 72.7023 79.4098 87.1758 62.6301 90.5375C60.7426 90.9156 59.9071 90.9704 55.9679 90.9749C50.8201 90.9809 49.0393 90.7223 44.9281 89.3725C36.8034 86.7046 30.0314 81.3187 25.4595 73.8888C22.9747 69.8509 21.3004 64.7869 20.6865 59.4521C20.4594 57.4786 20.448 57.4439 20.427 58.6618C20.3701 61.9599 21.2703 66.9879 22.5769 70.6705C24.8912 77.1938 29.4378 83.3876 35.2307 87.9086C37.5377 89.7089 42.1866 92.2254 45.1771 93.2924C49.8641 94.9649 52.6798 95.4501 57.7508 95.4589C62.0052 95.4662 64.5729 95.1299 68.3438 94.0709C80.0894 90.7728 89.457 81.8183 93.401 70.1184C96.0501 62.2604 96.0782 54.1156 93.4836 46.2306C88.7346 31.7988 75.6107 21.6584 60.2875 20.5813L58.5465 20.459L58.4343 28.6017ZM35.6061 30.1471C35.6061 30.1856 35.2221 32.2345 34.7527 34.7005C33.9375 38.9834 33.1589 43.6402 33.243 43.7305C33.2647 43.7539 34.1443 43.9095 35.1973 44.0762L37.1123 44.3794L37.8014 43.7746C39.1807 42.5634 40.8827 42.1588 42.2303 42.7218C45.3512 44.0259 45.3957 50.6364 42.2934 52.1087C40.443 52.9866 38.2079 51.799 37.6158 49.6232L37.3925 48.8026L35.8894 48.9236C35.0626 48.9902 33.9752 49.0972 33.473 49.1616L32.5598 49.2783L32.6691 50.0762C32.8537 51.4224 33.6382 52.911 34.7482 54.021C37.2164 56.489 41.2948 57.1856 44.5677 55.698C45.7281 55.1705 47.4587 53.5956 48.1223 52.4632C49.8342 49.542 50.0607 45.9189 48.7139 42.9969C48.0146 41.4796 46.246 39.674 44.8654 39.0677C43.5737 38.5004 41.5341 38.3908 39.9986 38.8065C39.3282 38.9879 38.7476 39.1039 38.708 39.0643C38.5995 38.9558 39.2429 35.2783 39.4174 35.0084C39.5319 34.8315 40.6751 34.7739 44.068 34.7739H48.5667L48.514 32.4749L48.4613 30.176L42.0337 30.1267C38.4984 30.0994 35.6061 30.1086 35.6061 30.1471ZM82.9322 39.0001C81.9173 39.441 77.3819 42.1289 77.1274 42.4404C76.5419 43.1573 77.0929 44.3449 78.0112 44.3449C78.5685 44.3449 84.3432 41.0474 84.5885 40.5891C84.9014 40.0047 84.7991 39.5117 84.2804 39.1039C83.702 38.6488 83.735 38.6514 82.9322 39.0001ZM81.0215 54.4187C80.0714 54.7874 79.8054 55.7025 80.4585 56.3556C80.808 56.705 81.084 56.7309 84.4515 56.7309C87.4223 56.7309 88.1441 56.6788 88.4864 56.4387C88.969 56.1007 89.0405 55.3013 88.6374 54.7493C88.3923 54.4136 88.0949 54.3821 84.8372 54.3472C82.8935 54.3263 81.1763 54.3586 81.0215 54.4187ZM32.8427 67.8382C29.7263 69.53 28.5881 70.3702 28.5102 71.0355C28.4411 71.6266 29.036 72.3073 29.6215 72.3073C30.0781 72.3073 36.1452 68.8702 36.4975 68.4119C37.0603 67.6802 36.5106 66.4885 35.6111 66.4902C35.4535 66.4904 34.2077 67.0971 32.8427 67.8382ZM77.0805 67.0526C76.6181 67.515 76.6021 68.0159 77.0336 68.5228C77.4998 69.0706 83.1326 72.3073 83.6196 72.3073C84.1233 72.3073 84.7749 71.6782 84.7749 71.1918C84.7749 70.991 84.5849 70.6196 84.3526 70.3665C83.7307 69.6882 78.4925 66.6773 77.9346 66.6773C77.6713 66.6773 77.2869 66.8462 77.0805 67.0526ZM43.8131 75.6846C43.5513 75.8906 42.9487 76.7351 42.4741 77.5612C41.9997 78.3873 41.2314 79.7252 40.7669 80.5343C39.9406 81.9735 39.8006 82.4685 40.0418 83.0972C40.2112 83.5384 40.99 83.7995 41.432 83.5628C42.2086 83.1473 45.6149 77.4364 45.6149 76.5501C45.6149 76.2063 45.4558 75.8732 45.1876 75.656C44.6439 75.216 44.4026 75.2208 43.8131 75.6846ZM68.3029 75.7285C67.8154 75.9634 67.6035 76.5844 67.7938 77.2201C67.8655 77.4597 68.2838 78.247 68.7231 78.9695C69.1625 79.692 69.8351 80.8505 70.2175 81.5441C71.0438 83.0419 71.8731 83.8209 72.4571 83.648C73.0815 83.4634 73.3651 82.982 73.257 82.2912C73.1418 81.5555 70.2783 76.5261 69.6296 75.9199C69.1304 75.4535 68.9328 75.425 68.3029 75.7285ZM55.9407 79.0205C55.5615 79.3261 55.5333 79.5456 55.4534 82.8167C55.4066 84.7262 55.4451 86.5672 55.5388 86.9076C55.7516 87.6808 56.4187 88.0378 57.0844 87.7345C57.8037 87.4068 57.9698 86.3902 57.9034 82.7247C57.8512 79.8437 57.8043 79.4325 57.4871 79.0825C57.0553 78.606 56.4838 78.5831 55.9407 79.0205Z" fill="black"/>
<rect x="0.916672" y="0.958984" width="114" height="114" rx="57" stroke="#736F6C"/>
</svg>
