<svg width="116" height="116" viewBox="0 0 116 116" fill="none" xmlns="http://www.w3.org/2000/svg">
<path d="M58.5179 52.5965C56.8798 52.5486 55.2944 53.1783 54.1355 54.3372C52.9767 55.496 52.347 57.0814 52.3949 58.7195C52.3949 59.5649 53.0802 60.2502 53.9257 60.2502C54.7711 60.2502 55.4564 59.5649 55.4564 58.7195C55.4039 57.8909 55.7109 57.0799 56.2988 56.4938C56.8868 55.9076 57.6987 55.6031 58.5271 55.658C59.3725 55.6555 60.0558 54.9681 60.0532 54.1227C60.0507 53.2773 59.3633 52.594 58.5179 52.5965Z" fill="black"/>
<path d="M66.1716 32.6965C66.1716 21.1578 57.9056 17.905 52.9812 22.4054C52.9812 22.4054 50.3514 25.4944 50.7586 25.4944C47.8731 31.6082 49.8692 42.53 52.9215 47.5523C52.3052 47.8381 51.7155 48.1782 51.1596 48.5687C48.3955 44.1949 44.5918 40.5732 40.0878 38.0265C25.9652 29.8799 17.5247 44.4296 31.6687 52.6206C36.0507 55.1649 40.9675 56.648 46.0255 56.9511C46.6088 56.9511 46.1143 56.6357 46.3225 58.9762C41.16 59.2043 36.1302 60.683 31.6657 63.2853C20.9382 69.4986 23.2466 79.1805 30.8743 80.2015C38.2892 81.1705 47.9941 73.0483 51.1581 67.3433C51.7113 67.7322 52.2978 68.0713 52.9108 68.3566C50.5352 72.9461 49.3077 78.0432 49.3335 83.211C49.3335 99.5424 66.1716 99.5409 66.1716 83.211C66.1979 78.041 64.9698 72.9417 62.5927 68.3505C63.2058 68.0652 63.7923 67.7261 64.3454 67.3372C67.5125 73.056 77.1899 81.1751 84.6293 80.1954C92.2493 79.1759 94.5561 69.4802 83.8348 63.2776C79.3704 60.6787 74.3419 59.2021 69.181 58.9747C69.3877 56.6526 68.9055 56.945 69.478 56.945C74.537 56.6408 79.4547 55.1573 83.8379 52.613C97.9942 44.4143 89.5338 29.8769 75.4188 38.0204C70.9148 40.5671 67.1112 44.1888 64.347 48.5626C63.7911 48.1721 63.2014 47.832 62.5851 47.5462C64.9669 42.9603 66.1977 37.864 66.1716 32.6965ZM66.1716 57.9537C66.1716 62.6034 62.4023 66.3728 57.7525 66.3728C53.1028 66.3728 49.3335 62.6034 49.3335 57.9537C49.3335 53.304 53.1028 49.5346 57.7525 49.5346C62.3998 49.5405 66.1657 53.3064 66.1716 57.9537ZM55.9585 46.6171C53.9532 43.8709 52.395 37.9102 52.395 32.6965C52.395 20.4506 63.1101 20.4506 63.1101 32.6965C63.1101 37.9102 61.5518 43.8709 59.5466 46.6171C58.3577 46.4318 57.1474 46.4318 55.9585 46.6171ZM33.201 49.9709C25.4141 45.4613 26.2775 39.4088 31.283 38.7383C37.4503 37.9332 46.7787 46.0966 48.836 50.7363C48.0882 51.6622 47.4886 52.6986 47.0588 53.8085C43.685 54.1912 37.7412 52.5854 33.201 49.9709ZM38.5586 75.2281C27.9965 81.3159 22.5746 72.0932 33.201 65.9396C37.7442 63.3236 43.6896 61.7224 47.0619 62.1005C47.4914 63.2105 48.091 64.2469 48.839 65.1727C47.4537 68.2877 43.0727 72.6197 38.5571 75.2266L38.5586 75.2281ZM63.1101 83.211C63.1101 95.4569 52.395 95.4569 52.395 83.211C52.395 77.9957 53.9517 72.0365 55.9555 69.2812C57.1431 69.4871 58.3574 69.4871 59.545 69.2812C61.5518 72.0365 63.1101 77.9911 63.1101 83.211ZM82.3041 65.9365C90.091 70.4461 89.2276 76.4986 84.2221 77.1691C78.067 77.9743 68.731 69.8215 66.6691 65.1712C67.4172 64.2454 68.0167 63.209 68.4463 62.099C71.8216 61.7193 77.7654 63.3205 82.3041 65.9365ZM76.9465 40.6793C87.4948 34.5946 92.9397 43.8097 82.3041 49.9678C77.7608 52.5854 71.82 54.1912 68.4432 53.8069C68.0134 52.6971 67.4138 51.6607 66.666 50.7347C68.0514 47.6197 72.4323 43.2877 76.948 40.6808L76.9465 40.6793Z" fill="black"/>
<rect x="0.750031" y="0.958984" width="114" height="114" rx="57" stroke="#736F6C"/>
</svg>
