<svg width="67" height="80" viewBox="0 0 67 80" fill="none" xmlns="http://www.w3.org/2000/svg">
<path d="M35.64 37.312C35.64 43.692 34.408 48.334 31.944 51.238C29.524 54.142 26.004 55.594 21.384 55.594C16.148 55.594 11.726 54.01 8.118 50.842C3.806 47.058 1.65 41.624 1.65 34.54C1.65 27.632 3.828 21.978 8.184 17.578C11.924 13.794 15.928 11.902 20.196 11.902C22.264 11.902 24.068 12.276 25.608 13.024C27.588 13.992 29.392 15.576 31.02 17.776L34.386 11.572H34.65V30.712L34.056 30.382C34.056 24.706 32.494 20.152 29.37 16.72C26.774 13.86 24.046 12.43 21.186 12.43C17.358 12.43 14.608 14.212 12.936 17.776C11.264 21.296 10.428 26.62 10.428 33.748C10.428 40.744 11.33 46.046 13.134 49.654C14.938 53.218 17.688 55 21.384 55C25.564 55 28.776 53.768 31.02 51.304C33.704 48.4 35.046 43.736 35.046 37.312H35.64Z" fill="black"/>
<path d="M40.4326 37.664C42.9846 35.42 44.4366 34.166 44.7886 33.902V48.29L44.1946 48.092C43.5786 44.22 41.9726 40.986 39.3766 38.39C36.7806 35.75 33.8326 34.43 30.5326 34.43C28.2446 34.43 26.2646 34.958 24.5926 36.014C22.5246 37.29 21.4906 39.16 21.4906 41.624C21.4906 44 22.6126 45.936 24.8566 47.432C26.7486 48.708 29.7846 49.83 33.9646 50.798C39.3766 52.118 42.9186 53.372 44.5906 54.56C47.3186 56.54 48.6826 59.84 48.6826 64.46C48.6826 68.816 47.2746 72.182 44.4586 74.558C42.0826 76.582 39.2006 77.594 35.8126 77.594C33.2166 77.594 30.8846 77.176 28.8166 76.34C26.7926 75.504 25.0326 74.118 23.5366 72.182C20.8966 75.658 19.5106 77.462 19.3786 77.594V59.378L19.9726 59.312C20.8086 63.096 21.7546 66.132 22.8106 68.42C23.6906 70.356 24.7246 71.962 25.9126 73.238C28.2446 75.746 31.6326 77 36.0766 77C38.1446 77 40.0366 76.318 41.7526 74.954C43.7326 73.37 44.7226 71.39 44.7226 69.014C44.7226 66.11 43.3806 63.822 40.6966 62.15C38.8486 61.006 35.6146 59.818 30.9946 58.586C26.4186 57.31 23.2286 56.012 21.4246 54.692C18.7846 52.712 17.4646 49.83 17.4646 46.046C17.4646 42.658 18.6526 39.798 21.0286 37.466C23.4486 35.09 26.3086 33.902 29.6086 33.902C32.4246 33.902 34.7346 34.32 36.5386 35.156C37.1106 35.42 38.4086 36.256 40.4326 37.664Z" fill="black"/>
</svg>
